<svg xmlns="http://www.w3.org/2000/svg" xmlns:svg="http://www.w3.org/2000/svg" id="svg5" width="800" height="800" version="1.1" viewBox="0 0 211.667 211.667"><defs id="defs2"><clipPath id="clipPath2295" clipPathUnits="userSpaceOnUse"><rect style="display:inline;fill:#000;fill-opacity:1;stroke:none;stroke-width:0;stroke-linecap:round;stroke-linejoin:round;stroke-dasharray:none;stroke-opacity:1" id="rect2297" width="182.173" height="95.633" x="15.153" y="59.602" clip-path="none" mask="none" ry="9.765"/></clipPath><clipPath id="clipPath2299" clipPathUnits="userSpaceOnUse"><rect style="display:inline;fill:#000;fill-opacity:1;stroke:none;stroke-width:0;stroke-linecap:round;stroke-linejoin:round;stroke-dasharray:none;stroke-opacity:1" id="rect2301" width="182.173" height="95.633" x="15.153" y="59.602" clip-path="none" mask="none" ry="9.765"/></clipPath><clipPath id="clipPath2303" clipPathUnits="userSpaceOnUse"><rect style="display:inline;fill:#000;fill-opacity:1;stroke:none;stroke-width:0;stroke-linecap:round;stroke-linejoin:round;stroke-dasharray:none;stroke-opacity:1" id="rect2305" width="182.173" height="95.633" x="15.153" y="59.602" clip-path="none" mask="none" ry="9.765"/></clipPath></defs><g id="layer1"><rect style="display:none;fill:#eee;fill-opacity:1;stroke:none;stroke-width:0;stroke-linecap:round;stroke-linejoin:round;stroke-dasharray:none;stroke-opacity:1" id="rect1377-5" width="224.335" height="221.57" x="-4.662" y="-4.589"/><rect style="fill:#ddd;fill-opacity:1;stroke:none;stroke-width:0;stroke-linecap:round;stroke-linejoin:round;stroke-dasharray:none;stroke-opacity:1" id="rect1377" width="86.709" height="107.755" x="29.352" y="54.115" clip-path="url(#clipPath2303)"/><rect style="fill:#bbb;fill-opacity:1;stroke:none;stroke-width:2.556;stroke-linecap:round;stroke-linejoin:round;stroke-dasharray:none;stroke-opacity:1" id="rect1049" width="88.496" height="111.593" x="112.903" y="51.471" clip-path="url(#clipPath2299)" ry="0"/><rect style="fill:#ccc;fill-opacity:1;stroke:none;stroke-width:1.3236;stroke-linecap:round;stroke-linejoin:round;stroke-dasharray:none;stroke-opacity:1" id="rect1049-6" width="23.731" height="111.593" x="10.755" y="51.59" clip-path="url(#clipPath2295)" ry="0"/><rect style="display:inline;fill:none;fill-opacity:0;stroke:#9a9a9a;stroke-width:2;stroke-linecap:round;stroke-linejoin:round;stroke-dasharray:none;stroke-opacity:1" id="rect163" width="182.173" height="95.633" x="15.153" y="59.602" ry="9.765"/><g id="g2227"><circle style="fill:#bbb;fill-opacity:1;stroke:none;stroke-width:0;stroke-linecap:round;stroke-linejoin:round;stroke-dasharray:none;stroke-opacity:1" id="path1222-7-5-3" cx="25.656" cy="128.876" r="5.596"/><circle style="fill:#bbb;fill-opacity:1;stroke:none;stroke-width:0;stroke-linecap:round;stroke-linejoin:round;stroke-dasharray:none;stroke-opacity:1" id="path1222-7-5" cx="25.597" cy="115.72" r="5.596"/><circle style="fill:#bbb;fill-opacity:1;stroke:none;stroke-width:0;stroke-linecap:round;stroke-linejoin:round;stroke-dasharray:none;stroke-opacity:1" id="path1222-7" cx="25.559" cy="102.427" r="5.596"/><circle style="fill:#bbb;fill-opacity:1;stroke:none;stroke-width:0;stroke-linecap:round;stroke-linejoin:round;stroke-dasharray:none;stroke-opacity:1" id="path1222" cx="25.537" cy="89.12" r="5.596"/></g><g id="g2247"><g id="g2218" transform="translate(0.09861496,66.779774)"><circle style="fill:#9a9a9a;fill-opacity:1;stroke:none;stroke-width:0;stroke-linecap:round;stroke-linejoin:round;stroke-dasharray:none;stroke-opacity:1" id="circle2214" cx="122.992" cy="78.038" r="2.61"/><rect style="fill:#9a9a9a;fill-opacity:1;stroke:none;stroke-width:0;stroke-linecap:round;stroke-linejoin:round;stroke-dasharray:none;stroke-opacity:1" id="rect2216" width="56.327" height="4.42" x="128.541" y="75.849" ry="2.21"/></g><g id="g2182" transform="translate(0.09861496,51.779773)"><circle style="fill:#9a9a9a;fill-opacity:1;stroke:none;stroke-width:0;stroke-linecap:round;stroke-linejoin:round;stroke-dasharray:none;stroke-opacity:1" id="circle2178" cx="122.992" cy="78.038" r="2.61"/><rect style="fill:#9a9a9a;fill-opacity:1;stroke:none;stroke-width:0;stroke-linecap:round;stroke-linejoin:round;stroke-dasharray:none;stroke-opacity:1" id="rect2180" width="56.327" height="4.42" x="128.541" y="75.849" ry="2.21"/></g><g id="g2200" transform="translate(0.09861496,36.779773)"><circle style="fill:#9a9a9a;fill-opacity:1;stroke:none;stroke-width:0;stroke-linecap:round;stroke-linejoin:round;stroke-dasharray:none;stroke-opacity:1" id="circle2196" cx="122.992" cy="78.038" r="2.61"/><rect style="fill:#9a9a9a;fill-opacity:1;stroke:none;stroke-width:0;stroke-linecap:round;stroke-linejoin:round;stroke-dasharray:none;stroke-opacity:1" id="rect2198" width="56.327" height="4.42" x="128.541" y="75.849" ry="2.21"/></g><g id="g2191" transform="translate(0.09861496,21.779773)"><circle style="fill:#9a9a9a;fill-opacity:1;stroke:none;stroke-width:0;stroke-linecap:round;stroke-linejoin:round;stroke-dasharray:none;stroke-opacity:1" id="circle2187" cx="122.992" cy="78.038" r="2.61"/><rect style="fill:#9a9a9a;fill-opacity:1;stroke:none;stroke-width:0;stroke-linecap:round;stroke-linejoin:round;stroke-dasharray:none;stroke-opacity:1" id="rect2189" width="56.327" height="4.42" x="128.541" y="75.849" ry="2.21"/></g><g id="g2170" transform="translate(0.09861496,6.7797732)"><circle style="fill:#9a9a9a;fill-opacity:1;stroke:none;stroke-width:0;stroke-linecap:round;stroke-linejoin:round;stroke-dasharray:none;stroke-opacity:1" id="circle2166" cx="122.992" cy="78.038" r="2.61"/><rect style="fill:#9a9a9a;fill-opacity:1;stroke:none;stroke-width:0;stroke-linecap:round;stroke-linejoin:round;stroke-dasharray:none;stroke-opacity:1" id="rect2168" width="56.327" height="4.42" x="128.541" y="75.849" ry="2.21"/></g><g id="g2206" transform="translate(0,-2.5255102)"><circle style="fill:#9a9a9a;fill-opacity:1;stroke:none;stroke-width:0;stroke-linecap:round;stroke-linejoin:round;stroke-dasharray:none;stroke-opacity:1" id="path2112-2" cx="123.091" cy="72.344" r="2.61"/><rect style="fill:#9a9a9a;fill-opacity:1;stroke:none;stroke-width:0;stroke-linecap:round;stroke-linejoin:round;stroke-dasharray:none;stroke-opacity:1" id="rect2114-9" width="56.327" height="4.42" x="128.639" y="70.155" ry="2.21"/></g></g><g id="g1173"><path id="path1005" fill="#292d32" d="m 85.396054,112.23897 -4.330347,-10.12724 c -0.788593,-1.85388 -1.964566,-2.90534 -3.306559,-2.974515 -1.328158,-0.06917 -2.61481,0.857769 -3.597094,2.628645 l -2.628645,4.71776 c -0.553399,0.99611 -1.341992,1.59102 -2.199761,1.66019 -0.871561,0.083 -1.743165,-0.37354 -2.448749,-1.27282 l -0.30437,-0.38737 c -0.982283,-1.23132 -2.199761,-1.82622 -3.444909,-1.70171 -1.245147,0.12452 -2.310441,0.98229 -3.016024,2.37962 l -2.393451,4.77307 c -0.857768,1.72937 -0.774759,3.73544 0.235195,5.36797 1.009953,1.63252 2.766995,2.61481 4.690056,2.61481 h 17.653386 c 1.853888,0 3.58326,-0.92695 4.607047,-2.47646 1.051459,-1.54952 1.217479,-3.50025 0.484225,-5.20195 z" opacity=".4" style="stroke-width:1.3835"/><path id="path1007" fill="#292d32" d="m 64.573365,100.56269 c 2.582616,0 4.676166,-2.093621 4.676166,-4.676223 0,-2.582617 -2.09355,-4.676222 -4.676166,-4.676222 -2.582603,0 -4.676222,2.093605 -4.676222,4.676222 0,2.582602 2.093619,4.676223 4.676222,4.676223 z" style="stroke-width:1.3835;fill:#757f8c;fill-opacity:1"/></g></g></svg>