<svg xmlns="http://www.w3.org/2000/svg" xmlns:svg="http://www.w3.org/2000/svg" id="Layer_1" width="100" height="100" version="1.1" viewBox="0 0 512.001 512.001" xml:space="preserve"><path style="fill:#e9e9e9;stroke-width:.9" id="path2" d="m 98.214724,413.78443 c 96.611396,96.6114 252.242996,96.8535 349.140596,0.5283 0.7065,-0.702 1.4076,-1.4076 2.1024,-2.1159 52.1208,-53.0532 48.6333,-138.7269 -7.5654,-187.4394 -33.795,-29.2932 -65.6181,-41.6673 -89.2998,-65.3499 -23.6817,-23.6826 -36.0567,-55.5066 -65.3499,-89.299797 -48.7116,-56.1978 -134.3853,-59.6844 -187.438496,-7.5654 -0.7083,0.6948 -1.4139,1.3968 -2.1159,2.1024 C 1.3630244,161.54323 1.6033244,317.17393 98.214724,413.78443 Z"/><path style="fill:#d4d4d4;stroke-width:.9" id="path4" d="m 98.214724,413.78443 c 96.611396,96.6114 252.242996,96.8535 349.140596,0.5283 0.7065,-0.702 1.4076,-1.4076 2.1024,-2.1159 52.1208,-53.0532 48.6333,-138.7269 -7.5654,-187.4394 -33.795,-29.2932 -65.6181,-41.6673 -89.2998,-65.3499 0,0 -254.377796,254.3769 -254.377796,254.3769 z"/><circle style="fill:#d1393c;stroke-width:.9" id="circle6" cx="165.753" cy="346.248" r="35.241"/><path style="fill:#bc2029;stroke-width:.9" id="path8" d="m 190.67892,321.32203 c 13.7637,13.7637 13.7637,36.0783 0,49.8429 -13.7637,13.7637 -36.0783,13.7637 -49.8429,0 z"/><circle style="fill:#80cdd8;stroke-width:.9" id="circle10" cx="282.416" cy="387.058" r="35.241"/><circle style="fill:#3a7484;stroke-width:.9" id="circle12" cx="387.057" cy="321.304" r="35.241"/><circle style="fill:#e68d2c;stroke-width:.9" id="circle14" cx="190.697" cy="124.943" r="35.241"/><circle style="fill:#e06b34;stroke-width:.9" id="circle16" cx="124.943" cy="229.585" r="35.241"/></svg>